<svg height="512" viewBox="0 0 44 58" width="512" xmlns="http://www.w3.org/2000/svg"><g id="Page-1" fill="none" fill-rule="evenodd"><g id="026---Train-Location" fill-rule="nonzero" transform="translate(0 -1)"><path id="Shape" d="m22.44 1c-5.9098245-.11547997-11.6177218 2.15096706-15.83857252 6.28905603-4.22085075 4.13808897-6.59987006 9.79999147-6.60142748 15.71094397 0 20.68 18.08 33.63 21.46 35.84.3290494.2111133.7509506.2111133 1.08 0 3.25-2.12 20.05-14.16 21.38-33.42.88-12.77-8.69-24.17-21.48-24.42z" fill="#3b97d3"/><path id="Rectangle-path" d="m10.8 40h22.4v2h-22.4z" fill="#a56a43"/><path id="Shape" d="m34 43c-.3041289.000418-.5919196-.137589-.782-.375l-4.8-6c-.223291-.2790244-.2807626-.655978-.1507659-.9888658.1299968-.3328879.4277123-.5711366.781-.625.3532878-.0538635.7084749.0848414.9317659.3638658l4.8 6c.2402269.3000432.2872243.7112192.1208985 1.0577313-.1663258.346512-.5165356.5670286-.9008985.5672687z" fill="#bdc3c7"/><path id="Shape" d="m10 43c-.38436288-.0002401-.73457267-.2207567-.90089846-.5672687-.1663258-.3465121-.11932846-.7576881.12089846-1.0577313l4.8-6c.223291-.2790244.5784781-.4177293.9317659-.3638658.3532877.0538634.6510032.2921121.781.625.1299967.3328878.0725251.7098414-.1507659.9888658l-4.8 6c-.1900804.237411-.4778711.375418-.782.375z" fill="#bdc3c7"/><path id="Rectangle-path" d="m19 7h6v6.46h-6z" fill="#464f5d"/><path id="Shape" d="m31.77 37h-19.54c-.3925078-.0004965-.7484304-.2305711-.9100393-.5882654-.1616088-.3576943-.0990164-.776857.1600393-1.0717346l4.13-4.65h12.78l4.13 4.65c.2590557.2948776.3216481.7140403.1600393 1.0717346-.1616089.3576943-.5175315.5877689-.9100393.5882654z" fill="#e64c3c"/><path id="Shape" d="m21.79 30.69-2.7 6.31h-2.18l2.72-6.31z" fill="#c03a2b"/><path id="Shape" d="m27.09 37h-2.18l-2.71-6.31h2.18z" fill="#c03a2b"/><circle id="Oval" cx="22" cy="23" fill="#bdc3c7" r="10"/><circle id="Oval" cx="22" cy="23" fill="#7f8c8d" r="8"/><circle id="Oval" cx="22" cy="23" fill="#95a5a5" r="4"/><path id="Shape" d="m26 8h-8c-.5522847 0-1-.44771525-1-1s.4477153-1 1-1h8c.5522847 0 1 .44771525 1 1s-.4477153 1-1 1z" fill="#393f4a"/><path id="Shape" d="m28 24h-4c-.5522847 0-1-.4477153-1-1s.4477153-1 1-1h4c.5522847 0 1 .4477153 1 1s-.4477153 1-1 1z" fill="#bdc3c7"/></g></g></svg>